<mxfile host="app.diagrams.net" modified="2023-10-22T20:47:07.501Z" agent="Mozilla/5.0 (Macintosh; Intel Mac OS X 10_15_7) AppleWebKit/537.36 (KHTML, like Gecko) Chrome/115.0.0.0 Safari/537.36" etag="IJ3VA-e-hT_5JUyU2CBN" version="22.0.6" type="github">
  <diagram name="Page-1" id="WBi0yy7iUrweVhrKGvm1">
    <mxGraphModel dx="4030" dy="2033" grid="1" gridSize="10" guides="1" tooltips="1" connect="1" arrows="1" fold="1" page="1" pageScale="1" pageWidth="850" pageHeight="1100" math="0" shadow="0">
      <root>
        <mxCell id="0" />
        <mxCell id="1" parent="0" />
        <mxCell id="yYRyEqO5jqjLsj4i_Z6w-128" value="" style="rounded=0;whiteSpace=wrap;html=1;direction=south;" vertex="1" parent="1">
          <mxGeometry x="-320" y="240" width="670" height="1730" as="geometry" />
        </mxCell>
        <mxCell id="yYRyEqO5jqjLsj4i_Z6w-129" value="View Personal Information" style="ellipse;whiteSpace=wrap;html=1;" vertex="1" parent="1">
          <mxGeometry x="72.5" y="320" width="120" height="80" as="geometry" />
        </mxCell>
        <mxCell id="yYRyEqO5jqjLsj4i_Z6w-130" value="View Payslip" style="ellipse;whiteSpace=wrap;html=1;" vertex="1" parent="1">
          <mxGeometry x="72.5" y="440" width="120" height="80" as="geometry" />
        </mxCell>
        <mxCell id="yYRyEqO5jqjLsj4i_Z6w-131" value="Request Time Off" style="ellipse;whiteSpace=wrap;html=1;" vertex="1" parent="1">
          <mxGeometry x="70" y="560" width="120" height="80" as="geometry" />
        </mxCell>
        <mxCell id="yYRyEqO5jqjLsj4i_Z6w-132" value="&lt;font style=&quot;&quot;&gt;&lt;font size=&quot;1&quot;&gt;&lt;br&gt;Performance Review&lt;br&gt;&lt;/font&gt;&lt;br&gt;&lt;font style=&quot;font-size: 7px;&quot;&gt;Extension Point: &quot;Performance Review Completed&quot;&lt;/font&gt;&lt;br&gt;&lt;/font&gt;" style="ellipse;whiteSpace=wrap;html=1;" vertex="1" parent="1">
          <mxGeometry x="72.5" y="680" width="120" height="80" as="geometry" />
        </mxCell>
        <mxCell id="yYRyEqO5jqjLsj4i_Z6w-133" value="" style="endArrow=none;html=1;rounded=0;" edge="1" parent="1" source="yYRyEqO5jqjLsj4i_Z6w-132">
          <mxGeometry width="50" height="50" relative="1" as="geometry">
            <mxPoint x="230" y="700" as="sourcePoint" />
            <mxPoint x="430" y="580" as="targetPoint" />
          </mxGeometry>
        </mxCell>
        <mxCell id="yYRyEqO5jqjLsj4i_Z6w-134" value="" style="endArrow=none;html=1;rounded=0;" edge="1" parent="1">
          <mxGeometry width="50" height="50" relative="1" as="geometry">
            <mxPoint x="210" y="360" as="sourcePoint" />
            <mxPoint x="430" y="500" as="targetPoint" />
          </mxGeometry>
        </mxCell>
        <mxCell id="yYRyEqO5jqjLsj4i_Z6w-135" value="" style="endArrow=none;html=1;rounded=0;" edge="1" parent="1">
          <mxGeometry width="50" height="50" relative="1" as="geometry">
            <mxPoint x="220" y="490" as="sourcePoint" />
            <mxPoint x="420" y="520" as="targetPoint" />
          </mxGeometry>
        </mxCell>
        <mxCell id="yYRyEqO5jqjLsj4i_Z6w-136" value="" style="endArrow=none;html=1;rounded=0;" edge="1" parent="1">
          <mxGeometry width="50" height="50" relative="1" as="geometry">
            <mxPoint x="210" y="600" as="sourcePoint" />
            <mxPoint x="420" y="550" as="targetPoint" />
          </mxGeometry>
        </mxCell>
        <mxCell id="yYRyEqO5jqjLsj4i_Z6w-137" value="Employee&lt;br&gt;" style="shape=umlActor;verticalLabelPosition=bottom;verticalAlign=top;html=1;outlineConnect=0;" vertex="1" parent="1">
          <mxGeometry x="460" y="480" width="50" height="110" as="geometry" />
        </mxCell>
        <mxCell id="yYRyEqO5jqjLsj4i_Z6w-138" value="Approve Time Off" style="ellipse;whiteSpace=wrap;html=1;" vertex="1" parent="1">
          <mxGeometry x="72.5" y="810" width="120" height="80" as="geometry" />
        </mxCell>
        <mxCell id="yYRyEqO5jqjLsj4i_Z6w-139" value="Conduct Performance Review" style="ellipse;whiteSpace=wrap;html=1;" vertex="1" parent="1">
          <mxGeometry x="72.5" y="930" width="120" height="80" as="geometry" />
        </mxCell>
        <mxCell id="yYRyEqO5jqjLsj4i_Z6w-140" value="View Team Analytics" style="ellipse;whiteSpace=wrap;html=1;" vertex="1" parent="1">
          <mxGeometry x="72.5" y="1050" width="120" height="80" as="geometry" />
        </mxCell>
        <mxCell id="yYRyEqO5jqjLsj4i_Z6w-141" value="" style="endArrow=none;html=1;rounded=0;exitX=0.361;exitY=0.4;exitDx=0;exitDy=0;exitPerimeter=0;" edge="1" parent="1">
          <mxGeometry width="50" height="50" relative="1" as="geometry">
            <mxPoint x="210" y="1479.47" as="sourcePoint" />
            <mxPoint x="420" y="1390" as="targetPoint" />
          </mxGeometry>
        </mxCell>
        <mxCell id="yYRyEqO5jqjLsj4i_Z6w-142" value="" style="endArrow=none;html=1;rounded=0;exitX=0.979;exitY=0.375;exitDx=0;exitDy=0;exitPerimeter=0;" edge="1" parent="1">
          <mxGeometry width="50" height="50" relative="1" as="geometry">
            <mxPoint x="219.98000000000002" y="960" as="sourcePoint" />
            <mxPoint x="410" y="960" as="targetPoint" />
          </mxGeometry>
        </mxCell>
        <mxCell id="yYRyEqO5jqjLsj4i_Z6w-143" value="" style="endArrow=none;html=1;rounded=0;exitX=0.26;exitY=0.424;exitDx=0;exitDy=0;exitPerimeter=0;" edge="1" parent="1">
          <mxGeometry width="50" height="50" relative="1" as="geometry">
            <mxPoint x="210.00000000000017" y="1249.9999999999998" as="sourcePoint" />
            <mxPoint x="420" y="1340" as="targetPoint" />
          </mxGeometry>
        </mxCell>
        <mxCell id="yYRyEqO5jqjLsj4i_Z6w-144" value="Manager&lt;br&gt;" style="shape=umlActor;verticalLabelPosition=bottom;verticalAlign=top;html=1;outlineConnect=0;" vertex="1" parent="1">
          <mxGeometry x="450" y="900" width="50" height="110" as="geometry" />
        </mxCell>
        <mxCell id="yYRyEqO5jqjLsj4i_Z6w-145" value="Onboarding" style="ellipse;whiteSpace=wrap;html=1;" vertex="1" parent="1">
          <mxGeometry x="72.5" y="1210" width="120" height="80" as="geometry" />
        </mxCell>
        <mxCell id="yYRyEqO5jqjLsj4i_Z6w-146" value="Offboarding" style="ellipse;whiteSpace=wrap;html=1;" vertex="1" parent="1">
          <mxGeometry x="72.5" y="1320" width="120" height="80" as="geometry" />
        </mxCell>
        <mxCell id="yYRyEqO5jqjLsj4i_Z6w-147" value="Manage Employee Records" style="ellipse;whiteSpace=wrap;html=1;" vertex="1" parent="1">
          <mxGeometry x="72.5" y="1430" width="120" height="80" as="geometry" />
        </mxCell>
        <mxCell id="yYRyEqO5jqjLsj4i_Z6w-148" value="" style="endArrow=none;html=1;rounded=0;exitX=0.361;exitY=0.4;exitDx=0;exitDy=0;exitPerimeter=0;" edge="1" parent="1">
          <mxGeometry width="50" height="50" relative="1" as="geometry">
            <mxPoint x="220" y="1089" as="sourcePoint" />
            <mxPoint x="430" y="1000" as="targetPoint" />
          </mxGeometry>
        </mxCell>
        <mxCell id="yYRyEqO5jqjLsj4i_Z6w-149" value="" style="endArrow=none;html=1;rounded=0;exitX=0.979;exitY=0.375;exitDx=0;exitDy=0;exitPerimeter=0;" edge="1" parent="1">
          <mxGeometry width="50" height="50" relative="1" as="geometry">
            <mxPoint x="210" y="1359.23" as="sourcePoint" />
            <mxPoint x="400.02" y="1359.23" as="targetPoint" />
          </mxGeometry>
        </mxCell>
        <mxCell id="yYRyEqO5jqjLsj4i_Z6w-150" value="" style="endArrow=none;html=1;rounded=0;exitX=0.26;exitY=0.424;exitDx=0;exitDy=0;exitPerimeter=0;" edge="1" parent="1">
          <mxGeometry width="50" height="50" relative="1" as="geometry">
            <mxPoint x="210.00000000000017" y="849.9999999999998" as="sourcePoint" />
            <mxPoint x="420" y="940" as="targetPoint" />
          </mxGeometry>
        </mxCell>
        <mxCell id="yYRyEqO5jqjLsj4i_Z6w-151" value="HR Administrator" style="shape=umlActor;verticalLabelPosition=bottom;verticalAlign=top;html=1;outlineConnect=0;" vertex="1" parent="1">
          <mxGeometry x="440" y="1300" width="50" height="110" as="geometry" />
        </mxCell>
        <mxCell id="yYRyEqO5jqjLsj4i_Z6w-152" value="Performance management" style="ellipse;whiteSpace=wrap;html=1;" vertex="1" parent="1">
          <mxGeometry x="72.5" y="1540" width="120" height="80" as="geometry" />
        </mxCell>
        <mxCell id="yYRyEqO5jqjLsj4i_Z6w-153" value="" style="endArrow=none;html=1;rounded=0;" edge="1" parent="1">
          <mxGeometry width="50" height="50" relative="1" as="geometry">
            <mxPoint x="210" y="1580" as="sourcePoint" />
            <mxPoint x="430" y="1580" as="targetPoint" />
          </mxGeometry>
        </mxCell>
        <mxCell id="yYRyEqO5jqjLsj4i_Z6w-154" value="HR Manager" style="shape=umlActor;verticalLabelPosition=bottom;verticalAlign=top;html=1;outlineConnect=0;" vertex="1" parent="1">
          <mxGeometry x="450" y="1530" width="50" height="110" as="geometry" />
        </mxCell>
        <mxCell id="yYRyEqO5jqjLsj4i_Z6w-155" value="" style="endArrow=classic;html=1;rounded=0;" edge="1" parent="1">
          <mxGeometry width="50" height="50" relative="1" as="geometry">
            <mxPoint x="474.16999999999996" y="1440" as="sourcePoint" />
            <mxPoint x="474.16999999999996" y="1520" as="targetPoint" />
          </mxGeometry>
        </mxCell>
        <mxCell id="yYRyEqO5jqjLsj4i_Z6w-156" value="" style="endArrow=classic;html=1;rounded=0;exitX=0;exitY=0.5;exitDx=0;exitDy=0;" edge="1" parent="1" source="yYRyEqO5jqjLsj4i_Z6w-132">
          <mxGeometry width="50" height="50" relative="1" as="geometry">
            <mxPoint x="-140" y="720" as="sourcePoint" />
            <mxPoint x="-140" y="720" as="targetPoint" />
          </mxGeometry>
        </mxCell>
        <mxCell id="yYRyEqO5jqjLsj4i_Z6w-157" value="Performance Evaluation" style="ellipse;whiteSpace=wrap;html=1;" vertex="1" parent="1">
          <mxGeometry x="-270" y="680" width="120" height="80" as="geometry" />
        </mxCell>
        <mxCell id="yYRyEqO5jqjLsj4i_Z6w-158" value="" style="endArrow=none;dashed=1;html=1;dashPattern=1 3;strokeWidth=2;rounded=0;" edge="1" parent="1">
          <mxGeometry width="50" height="50" relative="1" as="geometry">
            <mxPoint x="-67" y="715" as="sourcePoint" />
            <mxPoint x="-117" y="635" as="targetPoint" />
          </mxGeometry>
        </mxCell>
        <mxCell id="yYRyEqO5jqjLsj4i_Z6w-159" value="" style="ellipse;whiteSpace=wrap;html=1;aspect=fixed;" vertex="1" parent="1">
          <mxGeometry x="-67" y="715" width="10" height="10" as="geometry" />
        </mxCell>
        <mxCell id="yYRyEqO5jqjLsj4i_Z6w-160" value="&lt;font style=&quot;font-size: 8px;&quot;&gt;&lt;br&gt;Condition: {Review scores are below a certain threshold&quot;}&lt;br&gt;Extension Point: &quot;Performance Review Completed&quot;&lt;br&gt;&lt;/font&gt;" style="shape=note;whiteSpace=wrap;html=1;backgroundOutline=1;darkOpacity=0.05;" vertex="1" parent="1">
          <mxGeometry x="-247" y="570" width="190" height="80" as="geometry" />
        </mxCell>
        <mxCell id="yYRyEqO5jqjLsj4i_Z6w-161" value="&lt;font style=&quot;font-size: 7px;&quot;&gt;&amp;lt;&amp;lt;extend&amp;gt;&amp;gt;&lt;/font&gt;" style="text;html=1;align=center;verticalAlign=middle;resizable=0;points=[];autosize=1;strokeColor=none;fillColor=none;" vertex="1" parent="1">
          <mxGeometry x="-100" y="715" width="60" height="30" as="geometry" />
        </mxCell>
        <mxCell id="yYRyEqO5jqjLsj4i_Z6w-162" value="" style="endArrow=none;html=1;rounded=0;entryX=1;entryY=0.5;entryDx=0;entryDy=0;exitX=0;exitY=0.5;exitDx=0;exitDy=0;" edge="1" parent="1" source="yYRyEqO5jqjLsj4i_Z6w-132" target="yYRyEqO5jqjLsj4i_Z6w-132">
          <mxGeometry width="50" height="50" relative="1" as="geometry">
            <mxPoint x="72.5" y="725" as="sourcePoint" />
            <mxPoint x="122.5" y="675" as="targetPoint" />
          </mxGeometry>
        </mxCell>
        <mxCell id="yYRyEqO5jqjLsj4i_Z6w-163" value=" Collect Personal Information " style="ellipse;whiteSpace=wrap;html=1;" vertex="1" parent="1">
          <mxGeometry x="-280" y="1050" width="120" height="80" as="geometry" />
        </mxCell>
        <mxCell id="yYRyEqO5jqjLsj4i_Z6w-164" value="Provide Training" style="ellipse;whiteSpace=wrap;html=1;" vertex="1" parent="1">
          <mxGeometry x="-177" y="1130" width="120" height="80" as="geometry" />
        </mxCell>
        <mxCell id="yYRyEqO5jqjLsj4i_Z6w-165" value="Access Credentials" style="ellipse;whiteSpace=wrap;html=1;" vertex="1" parent="1">
          <mxGeometry x="-270" y="1320" width="120" height="80" as="geometry" />
        </mxCell>
        <mxCell id="yYRyEqO5jqjLsj4i_Z6w-166" value="Assign Workspace" style="ellipse;whiteSpace=wrap;html=1;" vertex="1" parent="1">
          <mxGeometry x="-177" y="1230" width="120" height="80" as="geometry" />
        </mxCell>
        <mxCell id="yYRyEqO5jqjLsj4i_Z6w-167" value="" style="endArrow=block;dashed=1;endFill=0;endSize=12;html=1;rounded=0;exitX=0;exitY=1;exitDx=0;exitDy=0;" edge="1" parent="1" source="yYRyEqO5jqjLsj4i_Z6w-145">
          <mxGeometry width="160" relative="1" as="geometry">
            <mxPoint x="10" y="1310" as="sourcePoint" />
            <mxPoint x="-150" y="1360" as="targetPoint" />
          </mxGeometry>
        </mxCell>
        <mxCell id="yYRyEqO5jqjLsj4i_Z6w-168" value="" style="endArrow=block;dashed=1;endFill=0;endSize=12;html=1;rounded=0;exitX=0;exitY=0.5;exitDx=0;exitDy=0;entryX=1;entryY=0.5;entryDx=0;entryDy=0;" edge="1" parent="1" source="yYRyEqO5jqjLsj4i_Z6w-145" target="yYRyEqO5jqjLsj4i_Z6w-166">
          <mxGeometry width="160" relative="1" as="geometry">
            <mxPoint x="10" y="1310" as="sourcePoint" />
            <mxPoint x="-50" y="1260" as="targetPoint" />
          </mxGeometry>
        </mxCell>
        <mxCell id="yYRyEqO5jqjLsj4i_Z6w-169" value="" style="endArrow=block;dashed=1;endFill=0;endSize=12;html=1;rounded=0;exitX=0.015;exitY=0.285;exitDx=0;exitDy=0;exitPerimeter=0;entryX=0.992;entryY=0.669;entryDx=0;entryDy=0;entryPerimeter=0;" edge="1" parent="1" source="yYRyEqO5jqjLsj4i_Z6w-145" target="yYRyEqO5jqjLsj4i_Z6w-164">
          <mxGeometry width="160" relative="1" as="geometry">
            <mxPoint x="10" y="1310" as="sourcePoint" />
            <mxPoint x="170" y="1310" as="targetPoint" />
          </mxGeometry>
        </mxCell>
        <mxCell id="yYRyEqO5jqjLsj4i_Z6w-170" value="" style="endArrow=block;dashed=1;endFill=0;endSize=12;html=1;rounded=0;entryX=1;entryY=0.5;entryDx=0;entryDy=0;exitX=0;exitY=0;exitDx=0;exitDy=0;" edge="1" parent="1" source="yYRyEqO5jqjLsj4i_Z6w-145" target="yYRyEqO5jqjLsj4i_Z6w-163">
          <mxGeometry width="160" relative="1" as="geometry">
            <mxPoint x="10" y="1310" as="sourcePoint" />
            <mxPoint x="170" y="1310" as="targetPoint" />
          </mxGeometry>
        </mxCell>
        <mxCell id="yYRyEqO5jqjLsj4i_Z6w-171" value="&amp;lt;&amp;lt;include&amp;gt;&amp;gt;" style="edgeLabel;html=1;align=center;verticalAlign=middle;resizable=0;points=[];rotation=30;" vertex="1" connectable="0" parent="yYRyEqO5jqjLsj4i_Z6w-170">
          <mxGeometry x="-0.0991" relative="1" as="geometry">
            <mxPoint x="23" y="-2" as="offset" />
          </mxGeometry>
        </mxCell>
        <mxCell id="yYRyEqO5jqjLsj4i_Z6w-172" value="&amp;lt;&amp;lt;include&amp;gt;&amp;gt;" style="edgeLabel;html=1;align=center;verticalAlign=middle;resizable=0;points=[];rotation=20;" vertex="1" connectable="0" parent="1">
          <mxGeometry x="10.004754282944532" y="1199.9984259001856" as="geometry" />
        </mxCell>
        <mxCell id="yYRyEqO5jqjLsj4i_Z6w-173" value="&amp;lt;&amp;lt;include&amp;gt;&amp;gt;" style="edgeLabel;html=1;align=center;verticalAlign=middle;resizable=0;points=[];rotation=350;" vertex="1" connectable="0" parent="1">
          <mxGeometry x="0.004754282944531951" y="1219.9984259001856" as="geometry">
            <mxPoint x="0.0932699960685408" y="26.570496809578728" as="offset" />
          </mxGeometry>
        </mxCell>
        <mxCell id="yYRyEqO5jqjLsj4i_Z6w-174" value="&amp;lt;&amp;lt;include&amp;gt;&amp;gt;" style="edgeLabel;html=1;align=center;verticalAlign=middle;resizable=0;points=[];rotation=340;" vertex="1" connectable="0" parent="1">
          <mxGeometry x="-24.995245717055468" y="1279.9984259001856" as="geometry">
            <mxPoint x="0.0932699960685408" y="26.570496809578728" as="offset" />
          </mxGeometry>
        </mxCell>
        <mxCell id="yYRyEqO5jqjLsj4i_Z6w-175" value="Manage Employee Benefits" style="ellipse;whiteSpace=wrap;html=1;" vertex="1" parent="1">
          <mxGeometry x="85" y="1760" width="120" height="80" as="geometry" />
        </mxCell>
        <mxCell id="yYRyEqO5jqjLsj4i_Z6w-176" value="" style="endArrow=none;html=1;rounded=0;" edge="1" parent="1">
          <mxGeometry width="50" height="50" relative="1" as="geometry">
            <mxPoint x="220" y="1800" as="sourcePoint" />
            <mxPoint x="420" y="1800" as="targetPoint" />
          </mxGeometry>
        </mxCell>
        <mxCell id="yYRyEqO5jqjLsj4i_Z6w-177" value="Benefits Administrator" style="shape=umlActor;verticalLabelPosition=bottom;verticalAlign=top;html=1;outlineConnect=0;" vertex="1" parent="1">
          <mxGeometry x="450" y="1745" width="50" height="110" as="geometry" />
        </mxCell>
      </root>
    </mxGraphModel>
  </diagram>
</mxfile>
